@startuml

class LineFollower {
    -State current_state
}

abstract class State{
    +State doAction(Event event)
    -activate(Event activation_event)
}

State<|-- Init
State<|-- LineFollow
State<|-- TurnRightAngle
State<|-- LineSearch
State<|-- Stop

enum Pose {
    OUT_OF_LINE
    ON_LINE_WITH_TREE_CENTRAL_SENSORS
    ON_LINE_WITH_CENTRAL_SENSOR
    ON_LINE_WITHOUT_CENTRAL_SENSOR
    ON_LEFT_TURN
    ON_RIGHT_TURN
    ON_RIGHT_CORNER
}

class Event {
    Pose pose
    Integer eventTime
    List sensorValues
}

State -right-> Event
LineFollower  --> Event
Event -up-> Pose
LineFollower -down-> State



@enduml